<svg xmlns="http://www.w3.org/2000/svg" width="34" height="34" viewBox="0 0 34 34"><g transform="translate(0.387 0)"><g transform="translate(0 0)"><g transform="translate(-0.387 0)" fill="none" stroke="#fff" stroke-width="1.5"><rect width="34" height="34" rx="17" stroke="none"/><rect x="0.75" y="0.75" width="32.5" height="32.5" rx="16.25" fill="none"/></g></g><g transform="translate(10.325 10.866)"><path d="M13.567,5.567a2.675,2.675,0,0,1,2.667,2.667v5.333a2.675,2.675,0,0,1-2.667,2.667H8.233a2.675,2.675,0,0,1-2.667-2.667V8.233A2.675,2.675,0,0,1,8.233,5.567h5.333m0-1.067H8.233A3.744,3.744,0,0,0,4.5,8.233v5.333A3.744,3.744,0,0,0,8.233,17.3h5.333A3.744,3.744,0,0,0,17.3,13.567V8.233A3.744,3.744,0,0,0,13.567,4.5Z" transform="translate(-4.5 -4.5)" fill="#fff"/><path d="M24.425,10.6a.8.8,0,1,1,.8-.8A.8.8,0,0,1,24.425,10.6Z" transform="translate(-14.558 -6.867)" fill="#fff"/><path d="M14.45,12.317a2.133,2.133,0,1,1-2.133,2.133,2.135,2.135,0,0,1,2.133-2.133m0-1.067a3.2,3.2,0,1,0,3.2,3.2,3.2,3.2,0,0,0-3.2-3.2Z" transform="translate(-8.05 -8.05)" fill="#fff"/></g></g></svg>