<svg xmlns="http://www.w3.org/2000/svg" width="34" height="34" viewBox="0 0 34 34"><g transform="translate(0.387 0)"><g transform="translate(0 0)"><g transform="translate(-0.387 0)" fill="none" stroke="#fff" stroke-width="1.5"><rect width="34" height="34" rx="17" stroke="none"/><rect x="0.75" y="0.75" width="32.5" height="32.5" rx="16.25" fill="none"/></g></g><path d="M3,13.391H.221V4.451H3ZM1.608,3.231A1.615,1.615,0,1,1,3.216,1.608,1.621,1.621,0,0,1,1.608,3.231Zm11.78,10.16h-2.77V9.039c0-1.037-.021-2.367-1.443-2.367C7.731,6.672,7.51,7.8,7.51,8.964v4.427H4.736V4.451H7.4V5.67h.039a2.917,2.917,0,0,1,2.627-1.444c2.81,0,3.326,1.85,3.326,4.253v4.911Z" transform="translate(9.917 9.304)" fill="#fff"/></g></svg>