<svg xmlns="http://www.w3.org/2000/svg" width="34" height="34" viewBox="0 0 34 34"><g transform="translate(0.194 0)"><g transform="translate(0 0)"><g transform="translate(-0.194 0)" fill="none" stroke="#fff" stroke-width="1.5"><rect width="34" height="34" rx="17" stroke="none"/><rect x="0.75" y="0.75" width="32.5" height="32.5" rx="16.25" fill="none"/></g></g><path d="M11.9,6.065c.008.118.008.236.008.353a7.68,7.68,0,0,1-7.733,7.733A7.681,7.681,0,0,1,0,12.931a5.623,5.623,0,0,0,.656.034A5.443,5.443,0,0,0,4.031,11.8,2.723,2.723,0,0,1,1.489,9.919,3.428,3.428,0,0,0,2,9.961a2.875,2.875,0,0,0,.715-.093A2.718,2.718,0,0,1,.539,7.2V7.167a2.737,2.737,0,0,0,1.229.345A2.722,2.722,0,0,1,.926,3.877a7.726,7.726,0,0,0,5.6,2.844A3.068,3.068,0,0,1,6.462,6.1a2.721,2.721,0,0,1,4.7-1.86,5.351,5.351,0,0,0,1.725-.656,2.711,2.711,0,0,1-1.195,1.5,5.449,5.449,0,0,0,1.565-.421A5.842,5.842,0,0,1,11.9,6.065Z" transform="translate(10.746 8.987)" fill="#fff"/></g></svg>