<svg xmlns="http://www.w3.org/2000/svg" width="33" height="34" viewBox="0 0 33 34"><g transform="translate(-0.419 0)"><g transform="translate(0 0)"><g transform="translate(0.419 0)" fill="none" stroke="#fff" stroke-width="1.5"><rect width="33" height="34" rx="16.5" stroke="none"/><rect x="0.75" y="0.75" width="31.5" height="32.5" rx="15.75" fill="none"/></g><path d="M13.923,5.946a1.652,1.652,0,0,0-1.162-1.17A39.041,39.041,0,0,0,7.624,4.5a39.041,39.041,0,0,0-5.137.277,1.652,1.652,0,0,0-1.162,1.17A17.33,17.33,0,0,0,1.05,9.132a17.331,17.331,0,0,0,.275,3.185,1.627,1.627,0,0,0,1.162,1.151,39.041,39.041,0,0,0,5.137.277,39.041,39.041,0,0,0,5.137-.277,1.627,1.627,0,0,0,1.162-1.151A17.33,17.33,0,0,0,14.2,9.132a17.33,17.33,0,0,0-.275-3.185Zm-7.644,5.14V7.177L9.716,9.132,6.279,11.087Z" transform="translate(9.049 8.144)" fill="#fff"/></g></g></svg>