<svg id="svg" xmlns="http://www.w3.org/2000/svg" xmlns:xlink="http://www.w3.org/1999/xlink" width="400" height="400" viewBox="0, 0, 400,400"><g id="svgg"><path id="path0" d="M260.569 84.789 C 254.511 87.537,248.837 96.562,246.309 107.472 C 245.321 111.733,240.690 140.248,240.401 143.848 L 240.127 147.266 238.262 147.266 C 228.428 147.266,222.980 153.736,217.377 172.070 C 209.552 197.675,208.304 200.781,205.838 200.781 C 203.311 200.781,203.514 195.165,206.660 178.057 C 209.363 163.358,209.240 161.719,205.426 161.719 C 199.504 161.719,190.628 171.185,187.307 181.043 C 184.891 188.214,182.539 189.079,183.031 182.617 C 183.393 177.872,182.715 176.579,179.862 176.568 C 175.941 176.554,172.834 180.054,168.747 189.091 C 155.116 219.233,146.589 232.081,142.758 228.249 C 141.062 226.553,146.650 213.235,149.971 211.060 C 154.236 208.265,156.863 204.059,155.560 202.109 C 154.040 199.832,145.892 200.625,143.385 203.293 C 142.899 203.810,141.630 204.608,140.566 205.066 C 135.437 207.273,135.851 203.508,141.463 196.919 C 146.002 191.588,147.643 190.779,151.709 191.866 C 155.004 192.748,157.649 190.941,162.049 184.805 C 164.971 180.729,162.564 178.117,155.899 178.132 C 146.644 178.153,139.548 182.411,131.387 192.840 C 125.068 200.916,125.382 209.939,132.014 210.829 C 135.648 211.316,136.344 213.665,134.007 217.555 C 124.957 232.618,134.767 246.605,148.765 238.596 C 153.492 235.892,156.288 231.997,166.497 213.890 C 170.741 206.364,171.855 205.642,171.869 210.406 C 171.907 223.236,179.003 229.671,182.249 219.820 C 185.124 211.098,190.237 198.712,192.335 195.388 C 194.167 192.486,194.421 193.013,194.599 200.098 C 195.044 217.749,206.488 220.524,213.886 204.775 C 216.579 199.041,216.581 199.038,217.283 198.903 C 217.717 198.819,218.123 199.222,218.490 200.101 C 220.237 204.281,227.437 206.375,232.227 204.096 C 235.818 202.388,239.316 197.449,241.214 191.406 C 242.393 187.652,243.439 187.366,244.905 190.395 C 248.570 197.965,259.786 192.894,265.780 180.957 C 266.976 178.576,267.556 178.430,269.770 179.949 C 281.831 188.223,294.511 174.336,312.096 133.594 C 314.555 127.898,316.625 127.779,315.181 133.417 C 308.587 159.156,319.809 170.490,338.137 156.603 C 342.797 153.071,375.145 123.859,375.543 122.823 C 376.692 119.828,375.241 116.797,372.658 116.797 C 370.948 116.797,371.958 116.009,353.134 132.031 C 332.876 149.273,329.145 151.599,326.102 148.880 C 323.323 146.396,324.065 141.792,329.321 128.906 C 333.300 119.153,333.597 117.941,332.628 115.404 C 331.125 111.468,324.680 111.357,321.825 115.219 C 319.766 118.003,318.750 117.065,318.750 112.380 C 318.750 102.833,313.783 98.040,307.018 101.057 C 298.267 104.961,294.142 123.801,301.563 125.978 C 305.039 126.998,304.880 127.588,296.703 143.968 C 286.637 164.134,281.416 171.401,277.948 170.070 C 274.724 168.833,279.367 159.227,287.176 150.977 C 292.308 145.555,291.823 142.188,285.910 142.188 C 283.144 142.188,282.162 142.581,275.077 146.525 L 273.397 147.461 272.636 146.539 C 270.304 143.713,278.903 136.762,285.130 136.439 C 289.580 136.209,289.647 136.176,291.942 133.099 C 296.889 126.468,296.577 124.219,290.713 124.219 C 276.994 124.219,260.375 136.976,261.019 147.012 C 261.325 151.773,263.060 153.626,267.823 154.272 C 271.601 154.785,271.865 156.131,268.877 159.655 C 267.927 160.776,266.344 163.149,265.360 164.928 C 257.895 178.428,253.730 183.162,251.771 180.371 C 250.505 178.565,251.322 165.096,253.140 157.813 C 260.718 127.460,267.584 96.068,267.570 91.834 C 267.550 86.077,264.499 83.006,260.569 84.789 M351.839 89.471 C 344.157 91.376,342.563 102.060,349.365 106.047 C 355.627 109.716,363.281 105.533,363.281 98.441 C 363.281 92.170,357.916 87.965,351.839 89.471 M356.317 91.472 C 358.210 92.040,360.337 94.327,360.987 96.494 C 362.619 101.942,356.917 107.063,351.662 104.868 C 343.474 101.447,347.824 88.928,356.317 91.472 M350.781 98.242 L 350.781 103.516 351.758 103.516 C 352.681 103.516,352.734 103.398,352.734 101.367 C 352.734 98.484,353.648 98.451,355.287 101.276 C 356.285 102.995,356.675 103.340,357.740 103.444 L 359.007 103.567 357.629 101.412 C 356.075 98.983,356.026 98.828,356.814 98.828 C 357.622 98.828,358.594 97.279,358.594 95.989 C 358.594 93.894,357.103 92.969,353.729 92.969 L 350.781 92.969 350.781 98.242 M355.344 94.770 C 357.398 95.321,356.678 96.996,354.199 97.433 L 352.734 97.692 352.734 96.111 C 352.734 94.430,353.194 94.194,355.344 94.770 M100.781 131.636 C 88.710 134.248,76.492 143.124,48.681 169.481 C 23.220 193.610,19.683 200.704,28.033 210.894 C 33.339 217.369,39.220 217.805,49.805 212.510 C 64.512 205.153,66.618 201.589,60.388 194.607 C 56.544 190.299,57.691 188.607,75.000 173.049 C 96.296 153.907,101.907 149.677,103.083 151.874 C 103.916 153.430,101.635 191.113,100.660 191.910 C 92.655 198.458,72.033 212.348,64.957 215.958 C 61.413 217.766,61.125 219.503,63.922 222.184 C 71.326 229.277,83.154 227.173,92.948 217.021 C 94.694 215.210,95.703 215.168,95.703 216.904 C 95.703 221.106,90.995 243.492,83.155 276.563 C 76.081 306.404,75.781 307.754,75.781 309.795 C 75.781 320.088,97.814 316.465,103.103 305.302 C 107.249 296.555,118.291 227.015,119.385 202.768 L 119.654 196.823 124.573 192.511 C 127.279 190.139,132.094 186.074,135.273 183.477 C 140.867 178.908,141.050 178.712,140.937 177.405 C 140.723 174.932,139.455 174.414,133.616 174.414 L 128.617 174.414 125.789 175.892 C 120.678 178.561,120.703 178.636,120.703 160.953 C 120.703 145.431,120.431 142.781,118.388 138.415 C 115.176 131.551,110.137 129.611,100.781 131.636 M240.128 162.387 C 243.860 168.090,233.493 191.490,228.285 189.117 C 225.987 188.071,225.455 183.366,226.930 177.152 C 229.114 167.959,237.578 158.489,240.128 162.387 " stroke="none" fill="#ed1c2e" fill-rule="evenodd"></path></g></svg>