<svg width="150" height="98" viewBox="0 0 150 98" fill="none" xmlns="http://www.w3.org/2000/svg">
<path d="M26.6854 29.3831C25.7539 29.3831 25 30.1371 25 31.0685V34.4393C25 35.3708 25.7539 36.1247 26.6854 36.1247C27.6169 36.1247 28.3708 35.3708 28.3708 34.4393V31.0685C28.3708 30.1371 27.6169 29.3831 26.6854 29.3831Z" fill="url(#paint0_linear_404_529)"/>
<path d="M33.1269 23.3191C32.1955 23.3191 31.4415 24.073 31.4415 25.0045V40.5045C31.4415 41.436 32.1955 42.1899 33.1269 42.1899C34.0584 42.1899 34.8123 41.436 34.8123 40.5045V25.0045C34.8123 24.073 34.0584 23.3191 33.1269 23.3191Z" fill="url(#paint1_linear_404_529)"/>
<path d="M39.5697 26.7618C38.6382 26.7618 37.8843 27.5157 37.8843 28.4472V37.0618C37.8843 37.9933 38.6382 38.7472 39.5697 38.7472C40.5011 38.7472 41.2551 37.9933 41.2551 37.0618V28.4472C41.2551 27.5157 40.5 26.7618 39.5697 26.7618Z" fill="url(#paint2_linear_404_529)"/>
<path d="M46.0112 17.4449C45.0797 17.4449 44.3258 18.1989 44.3258 19.1303V46.3775C44.3258 47.309 45.0797 48.0629 46.0112 48.0629C46.9427 48.0629 47.6966 47.309 47.6966 46.3775V19.1303C47.6966 18.1989 46.9427 17.4449 46.0112 17.4449Z" fill="url(#paint3_linear_404_529)"/>
<path d="M52.4528 8.97079C51.5214 8.97079 50.7675 9.72472 50.7675 10.6562V54.8506C50.7675 55.782 51.5214 56.536 52.4528 56.536C53.3843 56.536 54.1382 55.782 54.1382 54.8506V10.6562C54.1382 9.72584 53.3843 8.97079 52.4528 8.97079Z" fill="url(#paint4_linear_404_529)"/>
<path d="M58.8955 18.5213C57.964 18.5213 57.2101 19.2753 57.2101 20.2067V45.3C57.2101 46.2315 57.964 46.9854 58.8955 46.9854C59.8269 46.9854 60.5809 46.2315 60.5809 45.3V20.2067C60.5809 19.2764 59.8258 18.5213 58.8955 18.5213Z" fill="url(#paint5_linear_404_529)"/>
<path d="M65.4877 10.0966C64.5101 10.0697 63.7967 10.8404 63.791 11.7708L63.5113 53.7157C63.5056 54.6461 64.2551 55.4056 65.1854 55.4124C65.1888 55.4124 65.1922 55.4124 65.1967 55.4124C66.1225 55.4124 66.8764 54.6652 66.882 53.7382L67.1618 11.7933C67.1686 10.8629 66.4191 10.1022 65.4877 10.0966Z" fill="url(#paint6_linear_404_529)"/>
<path d="M71.7787 0C70.8472 0 70.0933 0.753933 70.0933 1.68539V63.8236C70.0933 64.7551 70.8472 65.509 71.7787 65.509C72.7101 65.509 73.464 64.7551 73.464 63.8236V1.68539C73.464 0.753933 72.7101 0 71.7787 0Z" fill="url(#paint7_linear_404_529)"/>
<path d="M78.2214 7.19213C77.2899 7.19213 76.536 7.94606 76.536 8.87752V56.6303C76.536 57.5618 77.2899 58.3157 78.2214 58.3157C79.1529 58.3157 79.9068 57.5618 79.9068 56.6303V8.87752C79.9068 7.94606 79.1517 7.19213 78.2214 7.19213Z" fill="url(#paint8_linear_404_529)"/>
<path d="M84.6629 18.5213C83.7315 18.5213 82.9775 19.2753 82.9775 20.2067V45.3C82.9775 46.2315 83.7315 46.9854 84.6629 46.9854C85.5944 46.9854 86.3483 46.2315 86.3483 45.3V20.2067C86.3483 19.2764 85.5944 18.5213 84.6629 18.5213Z" fill="url(#paint9_linear_404_529)"/>
<path d="M91.1045 11.4056C90.173 11.4056 89.4191 12.1595 89.4191 13.091V52.4169C89.4191 53.3483 90.173 54.1022 91.1045 54.1022C92.0359 54.1022 92.7899 53.3483 92.7899 52.4169V13.091C92.7899 12.1595 92.0359 11.4056 91.1045 11.4056Z" fill="url(#paint10_linear_404_529)"/>
<path d="M97.5472 21.1045C96.6157 21.1045 95.8618 21.8584 95.8618 22.7899V42.7169C95.8618 43.6483 96.6157 44.4022 97.5472 44.4022C98.4787 44.4022 99.2326 43.6483 99.2326 42.7169V22.7899C99.2326 21.8595 98.4787 21.1045 97.5472 21.1045Z" fill="url(#paint11_linear_404_529)"/>
<path d="M103.989 25.4506C103.057 25.4506 102.303 26.2045 102.303 27.136V38.3719C102.303 39.3034 103.057 40.0573 103.989 40.0573C104.92 40.0573 105.674 39.3034 105.674 38.3719V27.136C105.674 26.2045 104.919 25.4506 103.989 25.4506Z" fill="url(#paint12_linear_404_529)"/>
<path d="M110.43 23.4674C109.499 23.4674 108.745 24.2213 108.745 25.1528V40.3551C108.745 41.2865 109.499 42.0404 110.43 42.0404C111.362 42.0404 112.116 41.2865 112.116 40.3551V25.1528C112.116 24.2213 111.362 23.4674 110.43 23.4674Z" fill="url(#paint13_linear_404_529)"/>
<path d="M116.873 28.2483C115.942 28.2483 115.188 29.0022 115.188 29.9337V35.5753C115.188 36.5067 115.942 37.2607 116.873 37.2607C117.804 37.2607 118.558 36.5067 118.558 35.5753V29.9337C118.558 29.0022 117.803 28.2483 116.873 28.2483Z" fill="url(#paint14_linear_404_529)"/>
<path d="M123.315 29.8517C122.383 29.8517 121.629 30.6056 121.629 31.5371V33.9719C121.629 34.9034 122.383 35.6573 123.315 35.6573C124.246 35.6573 125 34.9034 125 33.9719V31.5371C125 30.6056 124.246 29.8517 123.315 29.8517Z" fill="url(#paint15_linear_404_529)"/>
<path d="M8.54505 86.0003H11.5474V97.5474H8.54505V91.0809L6.5127 95.007H5.01154L3.00232 91.0809V97.5474H0V86.0003H3.00232L5.77366 91.2426L8.54505 86.0003ZM14.2032 95.8154V86H17.2055V95.007H21.3627V86H24.365V95.8154L22.6329 97.5474H15.9356L14.2032 95.8154ZM34.2956 88.5404H30.0232V90.5034H35.6814L37.4135 92.2355V95.8152L35.6814 97.5473H28.7529L27.0209 95.8152V94.0831H29.2149L30.1386 95.0069H34.411V93.0438H28.7528L27.0207 91.3118V87.7321L28.7528 86H35.6812L37.4133 87.7321V89.4642H35.2193L34.2956 88.5404ZM39.7229 97.5474V95.238H40.6466V88.3095H39.7229V86H44.5727V88.3095H43.649V95.238H44.5727V97.5474H39.7229ZM53.5798 88.5404H49.8847V95.0069H53.5798L54.5036 94.0831H56.6976V95.8152L54.9655 97.5473H48.6146L46.8825 95.8152V87.7321L48.6146 86H54.9655L56.6976 87.7321V89.4642H54.5036L53.5798 88.5404ZM59.3533 97.5474V87.7321L61.0854 86H67.7827L69.5148 87.7321V97.5474H66.5125V94.3142H62.3553V97.5474H59.353H59.3533ZM62.3558 91.7737H66.5129V88.5404H62.3558V91.7737ZM72.1709 95.8154V86H75.1732V95.007H81.4089V97.5474H73.9033L72.1709 95.8154ZM82.679 88.5404V86H92.4943V88.5404H89.0763V97.5474H86.074V88.5404H82.6791H82.679ZM94.3418 95.8154V86H97.3441V95.007H101.501V86H104.504V95.8154L102.771 97.5474H96.0742L94.3418 95.8154ZM114.319 86.0003H117.321V97.5474H114.665L110.161 91.0809V97.5474H107.159V86.0003H109.815L114.319 92.4207V86.0003V86.0003ZM119.63 97.5474V95.238H120.554V88.3095H119.63V86H124.48V88.3095H123.557V95.238H124.48V97.5474H119.63ZM133.949 86.0003H136.951V97.5474H134.295L129.792 91.0809V97.5474H126.79V86.0003H129.445L133.949 92.4207V86.0003V86.0003ZM146.882 88.5404H142.61V95.0069H146.998V93.0439H144.342V90.5035H150V95.8153L148.268 97.5474H141.339L139.607 95.8153V87.7322L141.339 86.0001H148.268L150 87.7322V89.4643H147.806L146.882 88.5404Z" fill="url(#paint16_linear_404_529)"/>
<defs>
<linearGradient id="paint0_linear_404_529" x1="25" y1="29.3831" x2="28.3708" y2="29.3831" gradientUnits="userSpaceOnUse">
<stop stop-color="#8F5E25"/>
<stop offset="0.5" stop-color="#FBF4A1"/>
<stop offset="1" stop-color="#8F5E25"/>
</linearGradient>
<linearGradient id="paint1_linear_404_529" x1="31.4415" y1="23.3191" x2="34.8123" y2="23.3191" gradientUnits="userSpaceOnUse">
<stop stop-color="#8F5E25"/>
<stop offset="0.5" stop-color="#FBF4A1"/>
<stop offset="1" stop-color="#8F5E25"/>
</linearGradient>
<linearGradient id="paint2_linear_404_529" x1="37.8843" y1="26.7618" x2="41.2551" y2="26.7618" gradientUnits="userSpaceOnUse">
<stop stop-color="#8F5E25"/>
<stop offset="0.5" stop-color="#FBF4A1"/>
<stop offset="1" stop-color="#8F5E25"/>
</linearGradient>
<linearGradient id="paint3_linear_404_529" x1="44.3258" y1="17.4449" x2="47.6966" y2="17.4449" gradientUnits="userSpaceOnUse">
<stop stop-color="#8F5E25"/>
<stop offset="0.5" stop-color="#FBF4A1"/>
<stop offset="1" stop-color="#8F5E25"/>
</linearGradient>
<linearGradient id="paint4_linear_404_529" x1="50.7675" y1="8.97079" x2="54.1382" y2="8.97079" gradientUnits="userSpaceOnUse">
<stop stop-color="#8F5E25"/>
<stop offset="0.5" stop-color="#FBF4A1"/>
<stop offset="1" stop-color="#8F5E25"/>
</linearGradient>
<linearGradient id="paint5_linear_404_529" x1="57.2101" y1="18.5213" x2="60.5809" y2="18.5213" gradientUnits="userSpaceOnUse">
<stop stop-color="#8F5E25"/>
<stop offset="0.5" stop-color="#FBF4A1"/>
<stop offset="1" stop-color="#8F5E25"/>
</linearGradient>
<linearGradient id="paint6_linear_404_529" x1="63.5112" y1="10.0959" x2="67.1619" y2="10.0959" gradientUnits="userSpaceOnUse">
<stop stop-color="#8F5E25"/>
<stop offset="0.5" stop-color="#FBF4A1"/>
<stop offset="1" stop-color="#8F5E25"/>
</linearGradient>
<linearGradient id="paint7_linear_404_529" x1="70.0933" y1="0" x2="73.464" y2="0" gradientUnits="userSpaceOnUse">
<stop stop-color="#8F5E25"/>
<stop offset="0.5" stop-color="#FBF4A1"/>
<stop offset="1" stop-color="#8F5E25"/>
</linearGradient>
<linearGradient id="paint8_linear_404_529" x1="76.536" y1="7.19213" x2="79.9068" y2="7.19213" gradientUnits="userSpaceOnUse">
<stop stop-color="#8F5E25"/>
<stop offset="0.5" stop-color="#FBF4A1"/>
<stop offset="1" stop-color="#8F5E25"/>
</linearGradient>
<linearGradient id="paint9_linear_404_529" x1="82.9775" y1="18.5213" x2="86.3483" y2="18.5213" gradientUnits="userSpaceOnUse">
<stop stop-color="#8F5E25"/>
<stop offset="0.5" stop-color="#FBF4A1"/>
<stop offset="1" stop-color="#8F5E25"/>
</linearGradient>
<linearGradient id="paint10_linear_404_529" x1="89.4191" y1="11.4056" x2="92.7899" y2="11.4056" gradientUnits="userSpaceOnUse">
<stop stop-color="#8F5E25"/>
<stop offset="0.5" stop-color="#FBF4A1"/>
<stop offset="1" stop-color="#8F5E25"/>
</linearGradient>
<linearGradient id="paint11_linear_404_529" x1="95.8618" y1="21.1045" x2="99.2326" y2="21.1045" gradientUnits="userSpaceOnUse">
<stop stop-color="#8F5E25"/>
<stop offset="0.5" stop-color="#FBF4A1"/>
<stop offset="1" stop-color="#8F5E25"/>
</linearGradient>
<linearGradient id="paint12_linear_404_529" x1="102.303" y1="25.4506" x2="105.674" y2="25.4506" gradientUnits="userSpaceOnUse">
<stop stop-color="#8F5E25"/>
<stop offset="0.5" stop-color="#FBF4A1"/>
<stop offset="1" stop-color="#8F5E25"/>
</linearGradient>
<linearGradient id="paint13_linear_404_529" x1="108.745" y1="23.4674" x2="112.116" y2="23.4674" gradientUnits="userSpaceOnUse">
<stop stop-color="#8F5E25"/>
<stop offset="0.5" stop-color="#FBF4A1"/>
<stop offset="1" stop-color="#8F5E25"/>
</linearGradient>
<linearGradient id="paint14_linear_404_529" x1="115.188" y1="28.2483" x2="118.558" y2="28.2483" gradientUnits="userSpaceOnUse">
<stop stop-color="#8F5E25"/>
<stop offset="0.5" stop-color="#FBF4A1"/>
<stop offset="1" stop-color="#8F5E25"/>
</linearGradient>
<linearGradient id="paint15_linear_404_529" x1="121.629" y1="29.8517" x2="125" y2="29.8517" gradientUnits="userSpaceOnUse">
<stop stop-color="#8F5E25"/>
<stop offset="0.5" stop-color="#FBF4A1"/>
<stop offset="1" stop-color="#8F5E25"/>
</linearGradient>
<linearGradient id="paint16_linear_404_529" x1="0" y1="86" x2="150" y2="86" gradientUnits="userSpaceOnUse">
<stop stop-color="#8F5E25"/>
<stop offset="0.5" stop-color="#FBF4A1"/>
<stop offset="1" stop-color="#8F5E25"/>
</linearGradient>
</defs>
</svg>
