<svg width="250" height="198" viewBox="0 0 250 198" fill="none" xmlns="http://www.w3.org/2000/svg">
<path fill-rule="evenodd" clip-rule="evenodd" d="M0 0H250V198H0V0ZM2 2H248V196H2V2ZM6 6H244V192H6V6ZM8 8H242V190H6H8V8Z" fill="url(#paint0_linear_909_553)"/>
<path d="M76.6854 79.3831C75.7539 79.3831 75 80.1371 75 81.0685V84.4393C75 85.3708 75.7539 86.1247 76.6854 86.1247C77.6169 86.1247 78.3708 85.3708 78.3708 84.4393V81.0685C78.3708 80.1371 77.6169 79.3831 76.6854 79.3831Z" fill="url(#paint1_linear_909_553)"/>
<path d="M83.1269 73.3191C82.1955 73.3191 81.4415 74.073 81.4415 75.0045V90.5045C81.4415 91.436 82.1955 92.1899 83.1269 92.1899C84.0584 92.1899 84.8123 91.436 84.8123 90.5045V75.0045C84.8123 74.073 84.0584 73.3191 83.1269 73.3191Z" fill="url(#paint2_linear_909_553)"/>
<path d="M89.5697 76.7618C88.6382 76.7618 87.8843 77.5157 87.8843 78.4472V87.0618C87.8843 87.9933 88.6382 88.7472 89.5697 88.7472C90.5011 88.7472 91.2551 87.9933 91.2551 87.0618V78.4472C91.2551 77.5157 90.5 76.7618 89.5697 76.7618Z" fill="url(#paint3_linear_909_553)"/>
<path d="M96.0112 67.4449C95.0797 67.4449 94.3258 68.1989 94.3258 69.1303V96.3775C94.3258 97.309 95.0797 98.0629 96.0112 98.0629C96.9427 98.0629 97.6966 97.309 97.6966 96.3775V69.1303C97.6966 68.1989 96.9427 67.4449 96.0112 67.4449Z" fill="url(#paint4_linear_909_553)"/>
<path d="M102.453 58.9708C101.521 58.9708 100.767 59.7247 100.767 60.6562V104.851C100.767 105.782 101.521 106.536 102.453 106.536C103.384 106.536 104.138 105.782 104.138 104.851V60.6562C104.138 59.7258 103.384 58.9708 102.453 58.9708Z" fill="url(#paint5_linear_909_553)"/>
<path d="M108.895 68.5213C107.964 68.5213 107.21 69.2753 107.21 70.2067V95.3C107.21 96.2315 107.964 96.9854 108.895 96.9854C109.827 96.9854 110.581 96.2315 110.581 95.3V70.2067C110.581 69.2764 109.826 68.5213 108.895 68.5213Z" fill="url(#paint6_linear_909_553)"/>
<path d="M115.488 60.0966C114.51 60.0697 113.797 60.8404 113.791 61.7708L113.511 103.716C113.506 104.646 114.255 105.406 115.185 105.412C115.189 105.412 115.192 105.412 115.197 105.412C116.122 105.412 116.876 104.665 116.882 103.738L117.162 61.7933C117.169 60.8629 116.419 60.1022 115.488 60.0966Z" fill="url(#paint7_linear_909_553)"/>
<path d="M121.779 50C120.847 50 120.093 50.7539 120.093 51.6854V113.824C120.093 114.755 120.847 115.509 121.779 115.509C122.71 115.509 123.464 114.755 123.464 113.824V51.6854C123.464 50.7539 122.71 50 121.779 50Z" fill="url(#paint8_linear_909_553)"/>
<path d="M128.221 57.1921C127.29 57.1921 126.536 57.9461 126.536 58.8775V106.63C126.536 107.562 127.29 108.316 128.221 108.316C129.153 108.316 129.907 107.562 129.907 106.63V58.8775C129.907 57.9461 129.152 57.1921 128.221 57.1921Z" fill="url(#paint9_linear_909_553)"/>
<path d="M134.663 68.5213C133.731 68.5213 132.978 69.2753 132.978 70.2067V95.3C132.978 96.2315 133.731 96.9854 134.663 96.9854C135.594 96.9854 136.348 96.2315 136.348 95.3V70.2067C136.348 69.2764 135.594 68.5213 134.663 68.5213Z" fill="url(#paint10_linear_909_553)"/>
<path d="M141.104 61.4056C140.173 61.4056 139.419 62.1595 139.419 63.091V102.417C139.419 103.348 140.173 104.102 141.104 104.102C142.036 104.102 142.79 103.348 142.79 102.417V63.091C142.79 62.1595 142.036 61.4056 141.104 61.4056Z" fill="url(#paint11_linear_909_553)"/>
<path d="M147.547 71.1045C146.616 71.1045 145.862 71.8584 145.862 72.7899V92.7169C145.862 93.6483 146.616 94.4022 147.547 94.4022C148.479 94.4022 149.233 93.6483 149.233 92.7169V72.7899C149.233 71.8595 148.479 71.1045 147.547 71.1045Z" fill="url(#paint12_linear_909_553)"/>
<path d="M153.989 75.4506C153.057 75.4506 152.303 76.2045 152.303 77.136V88.3719C152.303 89.3034 153.057 90.0573 153.989 90.0573C154.92 90.0573 155.674 89.3034 155.674 88.3719V77.136C155.674 76.2045 154.919 75.4506 153.989 75.4506Z" fill="url(#paint13_linear_909_553)"/>
<path d="M160.43 73.4674C159.499 73.4674 158.745 74.2213 158.745 75.1528V90.3551C158.745 91.2865 159.499 92.0404 160.43 92.0404C161.362 92.0404 162.116 91.2865 162.116 90.3551V75.1528C162.116 74.2213 161.362 73.4674 160.43 73.4674Z" fill="url(#paint14_linear_909_553)"/>
<path d="M166.873 78.2483C165.942 78.2483 165.188 79.0022 165.188 79.9337V85.5753C165.188 86.5067 165.942 87.2607 166.873 87.2607C167.804 87.2607 168.558 86.5067 168.558 85.5753V79.9337C168.558 79.0022 167.803 78.2483 166.873 78.2483Z" fill="url(#paint15_linear_909_553)"/>
<path d="M173.315 79.8517C172.383 79.8517 171.629 80.6056 171.629 81.5371V83.9719C171.629 84.9034 172.383 85.6573 173.315 85.6573C174.246 85.6573 175 84.9034 175 83.9719V81.5371C175 80.6056 174.246 79.8517 173.315 79.8517Z" fill="url(#paint16_linear_909_553)"/>
<path d="M58.545 136H61.5474V147.547H58.545V141.081L56.5127 145.007H55.0115L53.0023 141.081V147.547H50V136H53.0023L55.7737 141.243L58.545 136ZM64.2032 145.815V136H67.2055V145.007H71.3627V136H74.365V145.815L72.6329 147.547H65.9356L64.2032 145.815ZM84.2956 138.54H80.0232V140.503H85.6814L87.4135 142.236V145.815L85.6814 147.547H78.7529L77.0209 145.815V144.083H79.2149L80.1386 145.007H84.411V143.044H78.7528L77.0207 141.312V137.732L78.7528 136H85.6812L87.4133 137.732V139.464H85.2193L84.2956 138.54ZM89.7229 147.547V145.238H90.6466V138.31H89.7229V136H94.5727V138.31H93.649V145.238H94.5727V147.547H89.7229ZM103.58 138.54H99.8847V145.007H103.58L104.504 144.083H106.698V145.815L104.966 147.547H98.6146L96.8825 145.815V137.732L98.6146 136H104.966L106.698 137.732V139.464H104.504L103.58 138.54ZM109.353 147.547V137.732L111.085 136H117.783L119.515 137.732V147.547H116.512V144.314H112.355V147.547H109.353H109.353ZM112.356 141.774H116.513V138.54H112.356V141.774ZM122.171 145.815V136H125.173V145.007H131.409V147.547H123.903L122.171 145.815ZM132.679 138.54V136H142.494V138.54H139.076V147.547H136.074V138.54H132.679H132.679ZM144.342 145.815V136H147.344V145.007H151.501V136H154.504V145.815L152.771 147.547H146.074L144.342 145.815ZM164.319 136H167.321V147.547H164.665L160.161 141.081V147.547H157.159V136H159.815L164.319 142.421V136V136ZM169.63 147.547V145.238H170.554V138.31H169.63V136H174.48V138.31H173.557V145.238H174.48V147.547H169.63ZM183.949 136H186.951V147.547H184.295L179.792 141.081V147.547H176.79V136H179.445L183.949 142.421V136V136ZM196.882 138.54H192.61V145.007H196.998V143.044H194.342V140.503H200V145.815L198.268 147.547H191.339L189.607 145.815V137.732L191.339 136H198.268L200 137.732V139.464H197.806L196.882 138.54Z" fill="url(#paint17_linear_909_553)"/>
<defs>
<linearGradient id="paint0_linear_909_553" x1="0" y1="0" x2="250" y2="0" gradientUnits="userSpaceOnUse">
<stop stop-color="#8F5E25"/>
<stop offset="0.5" stop-color="#FBF4A1"/>
<stop offset="1" stop-color="#8F5E25"/>
</linearGradient>
<linearGradient id="paint1_linear_909_553" x1="75" y1="79.3831" x2="78.3708" y2="79.3831" gradientUnits="userSpaceOnUse">
<stop stop-color="#8F5E25"/>
<stop offset="0.5" stop-color="#FBF4A1"/>
<stop offset="1" stop-color="#8F5E25"/>
</linearGradient>
<linearGradient id="paint2_linear_909_553" x1="81.4415" y1="73.3191" x2="84.8123" y2="73.3191" gradientUnits="userSpaceOnUse">
<stop stop-color="#8F5E25"/>
<stop offset="0.5" stop-color="#FBF4A1"/>
<stop offset="1" stop-color="#8F5E25"/>
</linearGradient>
<linearGradient id="paint3_linear_909_553" x1="87.8843" y1="76.7618" x2="91.2551" y2="76.7618" gradientUnits="userSpaceOnUse">
<stop stop-color="#8F5E25"/>
<stop offset="0.5" stop-color="#FBF4A1"/>
<stop offset="1" stop-color="#8F5E25"/>
</linearGradient>
<linearGradient id="paint4_linear_909_553" x1="94.3258" y1="67.4449" x2="97.6966" y2="67.4449" gradientUnits="userSpaceOnUse">
<stop stop-color="#8F5E25"/>
<stop offset="0.5" stop-color="#FBF4A1"/>
<stop offset="1" stop-color="#8F5E25"/>
</linearGradient>
<linearGradient id="paint5_linear_909_553" x1="100.767" y1="58.9708" x2="104.138" y2="58.9708" gradientUnits="userSpaceOnUse">
<stop stop-color="#8F5E25"/>
<stop offset="0.5" stop-color="#FBF4A1"/>
<stop offset="1" stop-color="#8F5E25"/>
</linearGradient>
<linearGradient id="paint6_linear_909_553" x1="107.21" y1="68.5213" x2="110.581" y2="68.5213" gradientUnits="userSpaceOnUse">
<stop stop-color="#8F5E25"/>
<stop offset="0.5" stop-color="#FBF4A1"/>
<stop offset="1" stop-color="#8F5E25"/>
</linearGradient>
<linearGradient id="paint7_linear_909_553" x1="113.511" y1="60.0959" x2="117.162" y2="60.0959" gradientUnits="userSpaceOnUse">
<stop stop-color="#8F5E25"/>
<stop offset="0.5" stop-color="#FBF4A1"/>
<stop offset="1" stop-color="#8F5E25"/>
</linearGradient>
<linearGradient id="paint8_linear_909_553" x1="120.093" y1="50" x2="123.464" y2="50" gradientUnits="userSpaceOnUse">
<stop stop-color="#8F5E25"/>
<stop offset="0.5" stop-color="#FBF4A1"/>
<stop offset="1" stop-color="#8F5E25"/>
</linearGradient>
<linearGradient id="paint9_linear_909_553" x1="126.536" y1="57.1921" x2="129.907" y2="57.1921" gradientUnits="userSpaceOnUse">
<stop stop-color="#8F5E25"/>
<stop offset="0.5" stop-color="#FBF4A1"/>
<stop offset="1" stop-color="#8F5E25"/>
</linearGradient>
<linearGradient id="paint10_linear_909_553" x1="132.978" y1="68.5213" x2="136.348" y2="68.5213" gradientUnits="userSpaceOnUse">
<stop stop-color="#8F5E25"/>
<stop offset="0.5" stop-color="#FBF4A1"/>
<stop offset="1" stop-color="#8F5E25"/>
</linearGradient>
<linearGradient id="paint11_linear_909_553" x1="139.419" y1="61.4056" x2="142.79" y2="61.4056" gradientUnits="userSpaceOnUse">
<stop stop-color="#8F5E25"/>
<stop offset="0.5" stop-color="#FBF4A1"/>
<stop offset="1" stop-color="#8F5E25"/>
</linearGradient>
<linearGradient id="paint12_linear_909_553" x1="145.862" y1="71.1045" x2="149.233" y2="71.1045" gradientUnits="userSpaceOnUse">
<stop stop-color="#8F5E25"/>
<stop offset="0.5" stop-color="#FBF4A1"/>
<stop offset="1" stop-color="#8F5E25"/>
</linearGradient>
<linearGradient id="paint13_linear_909_553" x1="152.303" y1="75.4506" x2="155.674" y2="75.4506" gradientUnits="userSpaceOnUse">
<stop stop-color="#8F5E25"/>
<stop offset="0.5" stop-color="#FBF4A1"/>
<stop offset="1" stop-color="#8F5E25"/>
</linearGradient>
<linearGradient id="paint14_linear_909_553" x1="158.745" y1="73.4674" x2="162.116" y2="73.4674" gradientUnits="userSpaceOnUse">
<stop stop-color="#8F5E25"/>
<stop offset="0.5" stop-color="#FBF4A1"/>
<stop offset="1" stop-color="#8F5E25"/>
</linearGradient>
<linearGradient id="paint15_linear_909_553" x1="165.188" y1="78.2483" x2="168.558" y2="78.2483" gradientUnits="userSpaceOnUse">
<stop stop-color="#8F5E25"/>
<stop offset="0.5" stop-color="#FBF4A1"/>
<stop offset="1" stop-color="#8F5E25"/>
</linearGradient>
<linearGradient id="paint16_linear_909_553" x1="171.629" y1="79.8517" x2="175" y2="79.8517" gradientUnits="userSpaceOnUse">
<stop stop-color="#8F5E25"/>
<stop offset="0.5" stop-color="#FBF4A1"/>
<stop offset="1" stop-color="#8F5E25"/>
</linearGradient>
<linearGradient id="paint17_linear_909_553" x1="50" y1="136" x2="200" y2="136" gradientUnits="userSpaceOnUse">
<stop stop-color="#8F5E25"/>
<stop offset="0.5" stop-color="#FBF4A1"/>
<stop offset="1" stop-color="#8F5E25"/>
</linearGradient>
</defs>
</svg>
