<svg width="190" height="138" viewBox="0 0 190 138" fill="none" xmlns="http://www.w3.org/2000/svg">
<path d="M180 0H10C4.47715 0 0 4.47715 0 10V128C0 133.523 4.47715 138 10 138H180C185.523 138 190 133.523 190 128V10C190 4.47715 185.523 0 180 0Z" fill="url(#paint0_linear_909_531)"/>
<path d="M46.6854 49.3831C45.7539 49.3831 45 50.1371 45 51.0685V54.4393C45 55.3708 45.7539 56.1247 46.6854 56.1247C47.6169 56.1247 48.3708 55.3708 48.3708 54.4393V51.0685C48.3708 50.1371 47.6169 49.3831 46.6854 49.3831Z" fill="black"/>
<path d="M53.1269 43.3191C52.1955 43.3191 51.4415 44.073 51.4415 45.0045V60.5045C51.4415 61.436 52.1955 62.1899 53.1269 62.1899C54.0584 62.1899 54.8123 61.436 54.8123 60.5045V45.0045C54.8123 44.073 54.0584 43.3191 53.1269 43.3191Z" fill="black"/>
<path d="M59.5697 46.7618C58.6382 46.7618 57.8843 47.5157 57.8843 48.4472V57.0618C57.8843 57.9933 58.6382 58.7472 59.5697 58.7472C60.5011 58.7472 61.2551 57.9933 61.2551 57.0618V48.4472C61.2551 47.5157 60.5 46.7618 59.5697 46.7618Z" fill="black"/>
<path d="M66.0112 37.4449C65.0797 37.4449 64.3258 38.1989 64.3258 39.1303V66.3775C64.3258 67.309 65.0797 68.0629 66.0112 68.0629C66.9427 68.0629 67.6966 67.309 67.6966 66.3775V39.1303C67.6966 38.1989 66.9427 37.4449 66.0112 37.4449Z" fill="black"/>
<path d="M72.4528 28.9708C71.5214 28.9708 70.7675 29.7247 70.7675 30.6562V74.8506C70.7675 75.782 71.5214 76.536 72.4528 76.536C73.3843 76.536 74.1382 75.782 74.1382 74.8506V30.6562C74.1382 29.7258 73.3843 28.9708 72.4528 28.9708Z" fill="black"/>
<path d="M78.8955 38.5213C77.964 38.5213 77.2101 39.2753 77.2101 40.2067V65.3C77.2101 66.2315 77.964 66.9854 78.8955 66.9854C79.8269 66.9854 80.5809 66.2315 80.5809 65.3V40.2067C80.5809 39.2764 79.8258 38.5213 78.8955 38.5213Z" fill="black"/>
<path d="M85.4877 30.0966C84.5101 30.0697 83.7967 30.8405 83.791 31.7708L83.5113 73.7157C83.5056 74.6461 84.2551 75.4056 85.1854 75.4124C85.1888 75.4124 85.1922 75.4124 85.1967 75.4124C86.1225 75.4124 86.8764 74.6652 86.882 73.7382L87.1618 31.7933C87.1686 30.8629 86.4191 30.1023 85.4877 30.0966Z" fill="black"/>
<path d="M91.7787 20C90.8472 20 90.0933 20.7539 90.0933 21.6854V83.8236C90.0933 84.7551 90.8472 85.509 91.7787 85.509C92.7101 85.509 93.464 84.7551 93.464 83.8236V21.6854C93.464 20.7539 92.7101 20 91.7787 20Z" fill="black"/>
<path d="M98.2214 27.1921C97.2899 27.1921 96.536 27.9461 96.536 28.8775V76.6303C96.536 77.5618 97.2899 78.3157 98.2214 78.3157C99.1529 78.3157 99.9068 77.5618 99.9068 76.6303V28.8775C99.9068 27.9461 99.1517 27.1921 98.2214 27.1921Z" fill="black"/>
<path d="M104.663 38.5213C103.731 38.5213 102.978 39.2753 102.978 40.2067V65.3C102.978 66.2315 103.731 66.9854 104.663 66.9854C105.594 66.9854 106.348 66.2315 106.348 65.3V40.2067C106.348 39.2764 105.594 38.5213 104.663 38.5213Z" fill="black"/>
<path d="M111.104 31.4056C110.173 31.4056 109.419 32.1595 109.419 33.091V72.4168C109.419 73.3483 110.173 74.1022 111.104 74.1022C112.036 74.1022 112.79 73.3483 112.79 72.4168V33.091C112.79 32.1595 112.036 31.4056 111.104 31.4056Z" fill="black"/>
<path d="M117.547 41.1045C116.616 41.1045 115.862 41.8584 115.862 42.7899V62.7169C115.862 63.6483 116.616 64.4022 117.547 64.4022C118.479 64.4022 119.233 63.6483 119.233 62.7169V42.7899C119.233 41.8595 118.479 41.1045 117.547 41.1045Z" fill="black"/>
<path d="M123.989 45.4506C123.057 45.4506 122.303 46.2045 122.303 47.136V58.3719C122.303 59.3034 123.057 60.0573 123.989 60.0573C124.92 60.0573 125.674 59.3034 125.674 58.3719V47.136C125.674 46.2045 124.919 45.4506 123.989 45.4506Z" fill="black"/>
<path d="M130.43 43.4674C129.499 43.4674 128.745 44.2214 128.745 45.1528V60.3551C128.745 61.2865 129.499 62.0405 130.43 62.0405C131.362 62.0405 132.116 61.2865 132.116 60.3551V45.1528C132.116 44.2214 131.362 43.4674 130.43 43.4674Z" fill="black"/>
<path d="M136.873 48.2483C135.942 48.2483 135.188 49.0023 135.188 49.9337V55.5753C135.188 56.5067 135.942 57.2607 136.873 57.2607C137.804 57.2607 138.558 56.5067 138.558 55.5753V49.9337C138.558 49.0023 137.803 48.2483 136.873 48.2483Z" fill="black"/>
<path d="M143.315 49.8517C142.383 49.8517 141.629 50.6056 141.629 51.5371V53.9719C141.629 54.9034 142.383 55.6573 143.315 55.6573C144.246 55.6573 145 54.9034 145 53.9719V51.5371C145 50.6056 144.246 49.8517 143.315 49.8517Z" fill="black"/>
<path d="M28.545 106H31.5474V117.547H28.545V111.081L26.5127 115.007H25.0115L23.0023 111.081V117.547H20V106H23.0023L25.7737 111.243L28.545 106ZM34.2032 115.815V106H37.2055V115.007H41.3627V106H44.365V115.815L42.6329 117.547H35.9356L34.2032 115.815ZM54.2956 108.54H50.0232V110.503H55.6814L57.4135 112.236V115.815L55.6814 117.547H48.7529L47.0209 115.815V114.083H49.2149L50.1386 115.007H54.411V113.044H48.7528L47.0207 111.312V107.732L48.7528 106H55.6812L57.4133 107.732V109.464H55.2193L54.2956 108.54ZM59.7229 117.547V115.238H60.6466V108.31H59.7229V106H64.5727V108.31H63.649V115.238H64.5727V117.547H59.7229ZM73.5798 108.54H69.8847V115.007H73.5798L74.5036 114.083H76.6976V115.815L74.9655 117.547H68.6146L66.8825 115.815V107.732L68.6146 106H74.9655L76.6976 107.732V109.464H74.5036L73.5798 108.54ZM79.3533 117.547V107.732L81.0854 106H87.7827L89.5148 107.732V117.547H86.5125V114.314H82.3553V117.547H79.353H79.3533ZM82.3558 111.774H86.5129V108.54H82.3558V111.774ZM92.1709 115.815V106H95.1732V115.007H101.409V117.547H93.9033L92.1709 115.815ZM102.679 108.54V106H112.494V108.54H109.076V117.547H106.074V108.54H102.679H102.679ZM114.342 115.815V106H117.344V115.007H121.501V106H124.504V115.815L122.771 117.547H116.074L114.342 115.815ZM134.319 106H137.321V117.547H134.665L130.161 111.081V117.547H127.159V106H129.815L134.319 112.421V106V106ZM139.63 117.547V115.238H140.554V108.31H139.63V106H144.48V108.31H143.557V115.238H144.48V117.547H139.63ZM153.949 106H156.951V117.547H154.295L149.792 111.081V117.547H146.79V106H149.445L153.949 112.421V106V106ZM166.882 108.54H162.61V115.007H166.998V113.044H164.342V110.503H170V115.815L168.268 117.547H161.339L159.607 115.815V107.732L161.339 106H168.268L170 107.732V109.464H167.806L166.882 108.54Z" fill="black"/>
<defs>
<linearGradient id="paint0_linear_909_531" x1="0" y1="0" x2="190" y2="0" gradientUnits="userSpaceOnUse">
<stop stop-color="#8F5E25"/>
<stop offset="0.5" stop-color="#FBF4A1"/>
<stop offset="1" stop-color="#8F5E25"/>
</linearGradient>
</defs>
</svg>
